<svg width="512" height="512" viewBox="0 0 512 512" fill="none" xmlns="http://www.w3.org/2000/svg">
<rect width="512" height="512" rx="143" fill="#18FF6D"/>
<g clip-path="url(#clip0_15_5)">
<path d="M119.594 316.647H88V158.789H119.594V166.682C124.859 161.42 135.391 158.789 151.187 158.789H182.781C214.375 158.789 230.172 174.575 230.172 206.146V316.647H198.578V206.146C198.578 195.622 193.312 190.36 182.781 190.36H151.187C130.125 190.36 119.594 198.253 119.594 214.039V316.647ZM423.538 332.433C423.538 364.004 407.742 379.791 376.148 379.791H297.163V348.219H376.148C386.679 348.219 391.944 342.957 391.944 332.433V316.647H328.757C297.163 316.647 281.367 300.861 281.367 269.29V206.146C281.367 174.575 297.163 158.789 328.757 158.789H423.538V332.433ZM391.944 285.075V190.36H328.757C318.226 190.36 312.96 195.622 312.96 206.146V269.29C312.96 279.813 318.226 285.075 328.757 285.075H391.944Z" fill="black"/>
<path d="M391.944 190.36V285.075H328.757C318.226 285.075 312.96 279.813 312.96 269.29V206.146C312.96 195.622 318.226 190.36 328.757 190.36H391.944Z" fill="white"/>
</g>
<defs>
<clipPath id="clip0_15_5">
<rect width="337" height="229" fill="white" transform="translate(88 155)"/>
</clipPath>
</defs>
</svg>
