<svg width="677" height="461" viewBox="0 0 677 461" fill="none" xmlns="http://www.w3.org/2000/svg">
<g clip-path="url(#clip0_116_2)">
<path d="M63.4687 324.96H0V7.61632H63.4687V23.4836C74.0469 12.9054 95.2031 7.61632 126.937 7.61632H190.406C253.875 7.61632 285.61 39.3507 285.61 102.819V324.96H222.14V102.819C222.14 81.6632 211.562 71.0851 190.406 71.0851H126.937C84.625 71.0851 63.4687 86.9523 63.4687 118.687V324.96ZM674.063 356.695C674.063 420.162 642.329 451.898 578.861 451.898H420.188V388.429H578.861C600.017 388.429 610.594 377.85 610.594 356.695V324.96H483.657C420.188 324.96 388.454 293.225 388.454 229.758V102.819C388.454 39.3507 420.188 7.61632 483.657 7.61632H674.063V356.695ZM610.594 261.491V71.0851H483.657C462.501 71.0851 451.923 81.6632 451.923 102.819V229.758C451.923 250.912 462.501 261.491 483.657 261.491H610.594Z" fill="white"/>
<path d="M610.594 71.0851V261.491H483.657C462.501 261.491 451.923 250.912 451.923 229.758V102.819C451.923 81.6632 462.501 71.0851 483.657 71.0851H610.594Z" fill="#04E824"/>
</g>
<defs>
<clipPath id="clip0_116_2">
<rect width="677" height="460.36" fill="white"/>
</clipPath>
</defs>
</svg>
