<svg width="315" height="51" viewBox="0 0 315 51" fill="none" xmlns="http://www.w3.org/2000/svg">
<path d="M264.154 0H267.874L269.734 2.48031L271.594 0H275.315L271.594 4.96063H267.874L266.014 2.48031L264.154 4.96063H260.433L264.154 0Z" fill="black"/>
<path d="M3.01279 38.193H0.42041V25.231H3.01279V25.8791C3.44486 25.4471 4.30899 25.231 5.60518 25.231H8.19757C10.79 25.231 12.0862 26.5272 12.0862 29.1197V38.193H9.49377V29.1197C9.49377 28.2555 9.06171 27.8234 8.19757 27.8234H5.60518C3.87692 27.8234 3.01279 28.4715 3.01279 29.7678V38.193ZM20.1755 38.193C17.5831 38.193 16.2869 36.8968 16.2869 34.3044V29.1197C16.2869 26.5272 17.5831 25.231 20.1755 25.231H24.064C26.6564 25.231 27.9526 26.5272 27.9526 29.1197V34.3044C27.9526 36.8968 26.6564 38.193 24.064 38.193H20.1755ZM24.064 35.6006C24.9281 35.6006 25.3602 35.1685 25.3602 34.3044V29.1197C25.3602 28.2555 24.9281 27.8234 24.064 27.8234H20.1755C19.3113 27.8234 18.8793 28.2555 18.8793 29.1197V34.3044C18.8793 35.1685 19.3113 35.6006 20.1755 35.6006H24.064ZM34.7457 25.231L37.9863 32.3602L41.2267 25.231H43.8191L37.9863 38.193L32.1533 25.231H34.7457ZM49.316 25.231H55.7969C58.3893 25.231 59.6855 26.5272 59.6855 29.1197V38.193H51.9084C49.316 38.193 48.0198 36.8968 48.0198 34.3044C48.0198 31.7121 49.316 30.4159 51.9084 30.4159H57.0931V29.1197C57.0931 28.2555 56.661 27.8234 55.7969 27.8234H49.316V25.231ZM57.0931 35.6006V33.0083H51.9084C51.0443 33.0083 50.6122 33.4404 50.6122 34.3044C50.6122 35.1685 51.0443 35.6006 51.9084 35.6006H57.0931ZM105.264 41.0997C105.264 46.9128 102.358 49.8195 96.5444 49.8195H82.0112V44.0063H96.5444C98.4821 44.0063 99.451 43.0373 99.451 41.0997V38.193H87.8245C82.0112 38.193 79.1047 35.2863 79.1047 29.4732V17.8468C79.1047 12.0334 82.0112 9.12683 87.8245 9.12683H105.264V41.0997ZM99.451 32.3798V14.9401H87.8245C85.8867 14.9401 84.9179 15.9089 84.9179 17.8468V29.4732C84.9179 31.4108 85.8867 32.3798 87.8245 32.3798H99.451ZM137.937 38.193H123.404C117.591 38.193 114.684 35.2863 114.684 29.4732V17.8468C114.684 12.0334 117.591 9.12683 123.404 9.12683H132.124C137.937 9.12683 140.843 12.0334 140.843 17.8468C140.843 23.6599 137.937 26.5665 132.124 26.5665H120.497V29.4732C120.497 31.4108 121.466 32.3798 123.404 32.3798H137.937V38.193ZM123.404 14.9401C121.466 14.9401 120.497 15.9089 120.497 17.8468V20.7533H132.124C134.061 20.7533 135.031 19.7844 135.031 17.8468C135.031 15.9089 134.061 14.9401 132.124 14.9401H123.404ZM156.076 38.193H150.264V9.12683H156.076V10.5802C157.045 9.61124 158.983 9.12683 161.89 9.12683H167.703C173.517 9.12683 176.422 12.0334 176.422 17.8468V20.7533H170.61V17.8468C170.61 15.9089 169.641 14.9401 167.703 14.9401H161.89C158.015 14.9401 156.076 16.3934 156.076 19.3V38.193ZM188.749 9.12683H203.283C209.096 9.12683 212.002 12.0334 212.002 17.8468V38.193H194.562C188.749 38.193 185.843 35.2863 185.843 29.4732C185.843 23.6599 188.749 20.7533 194.562 20.7533H206.189V17.8468C206.189 15.9089 205.22 14.9401 203.283 14.9401H188.749V9.12683ZM206.189 32.3798V26.5665H194.562C192.625 26.5665 191.656 27.5354 191.656 29.4732C191.656 31.4108 192.625 32.3798 194.562 32.3798H206.189ZM228.689 49.8195H241.769L243.222 44.0063H228.689V49.8195ZM237.408 44.0063H243.222L238.862 38.193H233.048L237.408 44.0063ZM247.581 32.3798V38.193H230.142C224.328 38.193 221.421 35.2863 221.421 29.4732V17.8468C221.421 12.0334 224.328 9.12683 230.142 9.12683H247.581V14.9401H230.142C228.204 14.9401 227.235 15.9089 227.235 17.8468V29.4732C227.235 31.4108 228.204 32.3798 230.142 32.3798H247.581ZM255.548 9.12683H270.081C275.894 9.12683 278.801 12.0334 278.801 17.8468V38.193H261.361C255.548 38.193 252.641 35.2863 252.641 29.4732C252.641 23.6599 255.548 20.7533 261.361 20.7533H272.987V17.8468C272.987 15.9089 272.019 14.9401 270.081 14.9401H255.548V9.12683ZM272.987 32.3798V26.5665H261.361C259.424 26.5665 258.455 27.5354 258.455 29.4732C258.455 31.4108 259.424 32.3798 261.361 32.3798H272.987ZM296.941 38.193C291.127 38.193 288.221 35.2863 288.221 29.4732V17.8468C288.221 12.0334 291.127 9.12683 296.941 9.12683H305.66C311.474 9.12683 314.38 12.0334 314.38 17.8468V29.4732C314.38 35.2863 311.474 38.193 305.66 38.193H296.941ZM305.66 32.3798C307.599 32.3798 308.567 31.4108 308.567 29.4732V17.8468C308.567 15.9089 307.599 14.9401 305.66 14.9401H296.941C295.002 14.9401 294.034 15.9089 294.034 17.8468V29.4732C294.034 31.4108 295.002 32.3798 296.941 32.3798H305.66Z" fill="black"/>
<path d="M99.4509 14.9401V32.3798H87.8245C85.8867 32.3798 84.9179 31.4108 84.9179 29.4732V17.8467C84.9179 15.9089 85.8867 14.9401 87.8245 14.9401H99.4509Z" fill="#18FF6D"/>
<path d="M120.497 17.8467C120.497 15.9089 121.466 14.9401 123.404 14.9401H132.124C134.061 14.9401 135.031 15.9089 135.031 17.8467C135.031 19.7844 134.061 20.7533 132.124 20.7533H120.497V17.8467Z" fill="#18FF6D"/>
<path d="M206.189 26.5665V32.3798H194.562C192.625 32.3798 191.656 31.4108 191.656 29.4732C191.656 27.5353 192.625 26.5665 194.562 26.5665H206.189Z" fill="#18FF6D"/>
<path d="M272.987 26.5665V32.3798H261.361C259.424 32.3798 258.455 31.4108 258.455 29.4732C258.455 27.5353 259.424 26.5665 261.361 26.5665H272.987Z" fill="#18FF6D"/>
<path d="M308.567 29.4732C308.567 31.4108 307.599 32.3798 305.66 32.3798H296.941C295.002 32.3798 294.034 31.4108 294.034 29.4732V17.8467C294.034 15.9089 295.002 14.9401 296.941 14.9401H305.66C307.599 14.9401 308.567 15.9089 308.567 17.8467V29.4732Z" fill="#18FF6D"/>
</svg>
